<svg xmlns="http://www.w3.org/2000/svg" viewBox="0 0 96 96" role="img" aria-labelledby="title desc">
  <title id="title">Yoshi-inspired green mascot mark</title>
  <desc id="desc">A custom neon green mascot badge inspired by playful dinosaur and egg colors.</desc>
  <defs>
    <filter id="glow" x="-50%" y="-50%" width="200%" height="200%">
      <feGaussianBlur stdDeviation="3" result="blur"/>
      <feMerge>
        <feMergeNode in="blur"/>
        <feMergeNode in="SourceGraphic"/>
      </feMerge>
    </filter>
  </defs>
  <rect x="7" y="7" width="82" height="82" rx="19" fill="#08080d" stroke="#7dff65" stroke-width="3"/>
  <path d="M30 51c0-17 11-29 27-29 11 0 20 7 20 18 0 15-14 28-31 28-10 0-16-6-16-17Z" fill="#65f05d" filter="url(#glow)"/>
  <path d="M26 57c0 13 11 20 26 17 8-2 16-7 20-14-9 4-21 4-31 1-7-2-12-4-15-4Z" fill="#f9fff4"/>
  <circle cx="57" cy="35" r="10" fill="#f9fff4"/>
  <circle cx="61" cy="34" r="4" fill="#08080d"/>
  <path d="M71 45c8 1 13 5 13 10 0 4-4 7-10 7-5 0-9-2-11-5" fill="#ff6b4a"/>
  <path d="M34 31c-7-2-13 1-15 7 7 0 12 2 16 7" fill="#65f05d"/>
  <path d="M27 76c5 2 11 3 18 2" fill="none" stroke="#7dff65" stroke-width="3" stroke-linecap="round"/>
</svg>
